Coordinates
version=1
nRows=11
nColumns=40
inDegrees=yes

Units are S.I. units (second, meters, Newtons, ...)
If the header above contains a line with 'inDegrees', this indicates whether rotational values are in degrees (yes) or radians (no).

endheader
time	pelvis_tilt	pelvis_list	pelvis_rotation	pelvis_tx	pelvis_ty	pelvis_tz	hip_flexion_r	hip_adduction_r	hip_rotation_r	knee_angle_r	knee_angle_r_beta	ankle_angle_r	subtalar_angle_r	mtp_angle_r	hip_flexion_l	hip_adduction_l	hip_rotation_l	knee_angle_l	knee_angle_l_beta	ankle_angle_l	subtalar_angle_l	mtp_angle_l	lumbar_extension	lumbar_bending	lumbar_rotation	arm_flex_r	arm_add_r	arm_rot_r	elbow_flex_r	pro_sup_r	wrist_flex_r	wrist_dev_r	arm_flex_l	arm_add_l	arm_rot_l	elbow_flex_l	pro_sup_l	wrist_flex_l	wrist_dev_l
      1.03000000	     -3.79719829	    -11.32154584	     89.94348337	      0.23740991	      0.94330685	      0.23986689	     40.24735326	     -1.84403552	     -3.28506898	      0.62796682	      0.01096009	      2.42831802	     -0.00000000	      0.00000000	    -13.00556550	      6.08575725	      3.84901591	     -0.11305425	     -0.00197317	     12.40456642	     -0.00000000	     -0.00000000	      0.79296788	     -5.17927446	     -4.67352798	      0.00000000	     -0.00000000	     -0.00000000	      0.00000000	      0.00000000	      0.00000000	     -0.00000000	      0.00000000	     -0.00000000	      0.00000000	      0.00000000	      0.00000000	     -0.00000000	     -0.00000000
      1.04000000	     -3.71632942	    -11.66650075	     89.94506740	      0.23770510	      0.93961645	      0.21922911	     40.71981469	     -1.69409436	     -2.92763667	      0.46693693	      0.00814959	      2.52294496	      0.00000000	      0.00000000	    -13.50564841	      5.93165821	      3.99077218	      0.64927591	      0.01133200	     12.06412277	      0.00000000	      0.00000000	      1.21913206	     -4.97811273	     -4.67653213	      0.00000000	      0.00000000	      0.00000000	      0.00000000	      0.00000000	      0.00000000	      0.00000000	      0.00000000	      0.00000000	      0.00000000	      0.00000000	      0.00000000	      0.00000000	      0.00000000
      1.05000000	     -3.55443263	    -11.89203305	     89.94570129	      0.23803490	      0.93665496	      0.19849365	     41.13253699	     -1.47192191	     -2.66497205	      1.10857364	      0.01934826	      2.29156742	      0.00000000	      0.00000000	    -13.85846695	      5.70574049	      4.10510744	      1.85115668	      0.03230878	     11.45035457	      0.00000000	      0.00000000	      1.49298949	     -4.69067564	     -4.57713203	      0.00000000	      0.00000000	      0.00000000	      0.00000000	      0.00000000	      0.00000000	      0.00000000	      0.00000000	      0.00000000	      0.00000000	      0.00000000	      0.00000000	      0.00000000	      0.00000000
      1.06000000	     -3.22513263	    -12.18223280	     89.94589255	      0.23846134	      0.93427100	      0.17758459	     41.56239848	     -1.07652637	     -2.78192229	      2.20386619	      0.03846472	      1.71074998	      0.00000000	      0.00000000	    -13.74182170	      5.31593941	      3.58537279	      3.66276290	      0.06392727	     10.22794219	      0.00000000	      0.00000000	      1.87014917	     -4.21813595	     -4.45672142	      0.00000000	      0.00000000	      0.00000000	      0.00000000	      0.00000000	      0.00000000	      0.00000000	      0.00000000	      0.00000000	      0.00000000	      0.00000000	      0.00000000	      0.00000000	      0.00000000
      1.07000000	     -2.83473714	    -12.32684067	     89.94515311	      0.23890569	      0.93273177	      0.15648726	     41.84693932	     -0.63174131	     -3.02990709	      3.76551506	      0.06572064	      0.69410540	      0.00000000	      0.00000000	    -13.51401018	      4.86922352	      3.09061029	      5.82743374	      0.10170791	      8.65759614	      0.00000000	      0.00000000	      2.08794694	     -3.67246150	     -4.30218305	      0.00000000	      0.00000000	      0.00000000	      0.00000000	      0.00000000	      0.00000000	      0.00000000	      0.00000000	      0.00000000	      0.00000000	      0.00000000	      0.00000000	      0.00000000	      0.00000000
      1.08000000	     -2.34560798	    -12.36267207	     89.94363459	      0.23939556	      0.93198009	      0.13522880	     41.97701053	     -0.10230811	     -3.39097206	      5.57338048	      0.09727384	     -0.74128010	      0.00000000	      0.00000000	    -13.05353655	      4.31486935	      2.41575890	      8.47291567	      0.14788028	      6.53322778	      0.00000000	     -0.00000000	      2.18557936	     -3.00829745	     -4.13340897	     -0.00000000	     -0.00000000	      0.00000000	      0.00000000	      0.00000000	     -0.00000000	      0.00000000	      0.00000000	      0.00000000	     -0.00000000	      0.00000000	      0.00000000	      0.00000000	      0.00000000
      1.09000000	     -1.82041341	    -12.23913712	     89.94124739	      0.23989996	      0.93208417	      0.11390941	     41.89718758	      0.44240629	     -3.77989445	      7.50297850	      0.13095168	     -2.46623073	      0.00000000	      0.00000000	    -12.37499666	      3.69837654	      1.61258544	     11.64660764	      0.20327165	      3.83527860	      0.00000000	      0.00000000	      2.09664491	     -2.31397367	     -3.93386334	      0.00000000	      0.00000000	      0.00000000	      0.00000000	      0.00000000	      0.00000000	      0.00000000	      0.00000000	      0.00000000	      0.00000000	      0.00000000	      0.00000000	      0.00000000	      0.00000000
      1.10000000	     -1.17733869	    -12.03691527	     89.93787647	      0.24046399	      0.93290556	      0.09257371	     41.66418892	      1.08624486	     -4.10808840	      9.43584297	      0.16468653	     -4.35447045	      0.00000000	      0.00000000	    -11.40878483	      2.91714182	      0.71689084	     15.30325997	      0.26709227	      0.56917376	      0.00000000	      0.00000000	      1.92568975	     -1.48032412	     -3.74432293	      0.00000000	      0.00000000	      0.00000000	      0.00000000	      0.00000000	      0.00000000	      0.00000000	      0.00000000	      0.00000000	      0.00000000	      0.00000000	      0.00000000	      0.00000000	      0.00000000
      1.11000000	     -0.44874127	    -11.73579582	     89.93344723	      0.24113971	      0.93440194	      0.07136867	     41.26787410	      1.81152494	     -4.30282843	     11.34435453	      0.19799634	     -6.14387032	      0.00000000	      0.00000000	    -10.18653482	      2.00293468	     -0.12760743	     19.40889001	      0.33874903	     -3.11166706	     -0.00000000	     -0.00000000	      1.62589056	     -0.57824243	     -3.52805303	     -0.00000000	     -0.00000000	     -0.00000000	      0.00000000	      0.00000000	      0.00000000	      0.00000000	     -0.00000000	     -0.00000000	      0.00000000	      0.00000000	      0.00000000	      0.00000000	      0.00000000
      1.12000000	      0.34196558	    -11.36649424	     89.92764984	      0.24187207	      0.93645891	      0.05038025	     40.72432884	      2.59894694	     -4.30604603	     13.17331809	      0.22991777	     -7.59219331	      0.00000000	      0.00000000	     -8.71938118	      0.98499878	     -0.80044947	     23.86084474	      0.41645030	     -6.98614003	      0.00000000	      0.00000000	      1.22328534	      0.38173723	     -3.28284552	      0.00000000	      0.00000000	      0.00000000	      0.00000000	      0.00000000	      0.00000000	      0.00000000	      0.00000000	      0.00000000	      0.00000000	      0.00000000	      0.00000000	      0.00000000	      0.00000000
      1.13000000	      1.15991964	    -10.94499567	     89.92045822	      0.24263386	      0.93899398	      0.02976689	     40.05997795	      3.41967139	     -4.17398749	     14.92066197	      0.26041468	     -8.51502136	      0.00000000	      0.00000000	     -7.04792237	     -0.07399062	     -1.23578880	     28.51394179	      0.49766217	    -10.73541088	      0.00000000	      0.00000000	      0.72883040	      1.35233214	     -3.02758444	      0.00000000	      0.00000000	      0.00000000	      0.00000000	      0.00000000	      0.00000000	      0.00000000	      0.00000000	      0.00000000	      0.00000000	      0.00000000	      0.00000000	      0.00000000	      0.00000000
